<svg width="21" height="21" viewBox="0 0 21 21" fill="none" xmlns="http://www.w3.org/2000/svg">
<path d="M10.504 5.11697C9.43944 5.11697 8.39877 5.43268 7.5136 6.02418C6.62844 6.61567 5.93854 7.45638 5.53114 8.44C5.12375 9.42362 5.01715 10.506 5.22484 11.5502C5.43253 12.5944 5.94517 13.5535 6.69794 14.3064C7.45071 15.0592 8.4098 15.5719 9.45392 15.7796C10.498 15.9873 11.5803 15.8807 12.5638 15.4733C13.5474 15.0658 14.388 14.3759 14.9795 13.4906C15.5709 12.6054 15.8866 11.5647 15.8866 10.5C15.8877 9.79278 15.7493 9.09229 15.4792 8.43868C15.2091 7.78508 14.8126 7.19121 14.3126 6.69113C13.8125 6.19105 13.2187 5.79458 12.5652 5.52445C11.9116 5.25433 11.2112 5.11585 10.504 5.11697ZM10.504 13.9985C9.8119 13.9985 9.13532 13.7932 8.55984 13.4087C7.98437 13.0241 7.53584 12.4775 7.27098 11.8381C7.00611 11.1986 6.93681 10.4949 7.07184 9.81603C7.20686 9.13715 7.54015 8.51357 8.02955 8.02413C8.51896 7.53469 9.14249 7.20137 9.82131 7.06634C10.5001 6.9313 11.2037 7.0006 11.8432 7.26549C12.4826 7.53037 13.0292 7.97894 13.4137 8.55446C13.7982 9.12998 14.0034 9.80661 14.0034 10.4988C14.0021 11.4267 13.6331 12.3162 12.9771 12.9725C12.3212 13.6287 11.4318 13.9981 10.504 13.9997V13.9985ZM17.3621 4.89733C17.3621 5.14574 17.2884 5.38856 17.1504 5.5951C17.0125 5.80164 16.8163 5.96262 16.5868 6.05768C16.3574 6.15275 16.1048 6.17762 15.8612 6.12916C15.6176 6.0807 15.3938 5.96108 15.2182 5.78543C15.0426 5.60978 14.923 5.38599 14.8745 5.14236C14.8261 4.89872 14.8509 4.64619 14.946 4.4167C15.041 4.1872 15.202 3.99104 15.4085 3.85304C15.615 3.71503 15.8579 3.64137 16.1062 3.64137C16.2712 3.64105 16.4346 3.67333 16.587 3.73635C16.7395 3.79937 16.878 3.89189 16.9946 4.00859C17.1111 4.1253 17.2035 4.26389 17.2664 4.41641C17.3292 4.56893 17.3626 4.73236 17.3621 4.89733ZM20.927 6.17149C20.9608 4.53892 20.3506 2.95867 19.2283 1.7726C18.0399 0.654055 16.4614 0.044379 14.8298 0.0737193C13.097 -0.0245731 7.90251 -0.0245731 6.16857 0.0737193C4.53824 0.0426716 2.96044 0.650671 1.77246 1.76775C0.652106 2.95502 0.0421688 4.53445 0.0737135 6.16664C-0.0245712 7.8995 -0.0245712 13.0944 0.0737135 14.8285C0.0399451 16.4611 0.650197 18.0413 1.77246 19.2274C2.96126 20.3453 4.53947 20.9548 6.171 20.9263C7.90372 21.0246 13.0982 21.0246 14.8322 20.9263C16.4646 20.9601 18.0447 20.3498 19.2307 19.2274C20.3492 18.0389 20.9588 16.4603 20.9295 14.8285C21.0241 13.0944 21.0253 7.90435 20.927 6.17149ZM18.6883 16.6888C18.5102 17.1406 18.2411 17.5509 17.8978 17.8943C17.5544 18.2377 17.1441 18.5069 16.6923 18.685C15.3103 19.2335 12.0317 19.106 10.504 19.106C8.97636 19.106 5.69292 19.2274 4.31573 18.685C3.86299 18.5072 3.45169 18.2381 3.10745 17.8945C2.76322 17.5509 2.49341 17.14 2.31485 16.6876C1.76639 15.3054 1.8938 12.0266 1.8938 10.4988C1.8938 8.97101 1.77246 5.68731 2.31485 4.31C2.49383 3.85822 2.76382 3.44809 3.10804 3.1051C3.45225 2.76211 3.86333 2.4936 4.31573 2.31624C5.69778 1.76775 8.97636 1.8988 10.504 1.8988C12.0317 1.8988 15.3151 1.77745 16.6923 2.31988C17.1441 2.498 17.5544 2.76712 17.8978 3.11052C18.2411 3.45392 18.5102 3.86427 18.6883 4.31607C19.2368 5.69823 19.1094 8.97707 19.1094 10.5049C19.1094 12.0326 19.2344 15.3103 18.6871 16.6876L18.6883 16.6888Z" fill="#4E5A52"/>
</svg>
