<svg width="29" height="29" viewBox="0 0 29 29" fill="none" xmlns="http://www.w3.org/2000/svg">
<g id="Group 2827">
<rect id="Rectangle 1153" y="0.0148926" width="28.5417" height="28.5417" rx="1.65116" fill="#9CA297"/>
<g id="Group 2825">
<path id="Vector" d="M19.714 23.114H8.89285C8.82882 23.114 8.76479 23.114 8.68795 23.114C7.44576 23.0244 6.37005 22.0127 5.94745 20.5272C5.16628 17.9148 4.24425 14.726 4.3467 14.4187L4.74368 14.5468L4.55159 14.4827L4.75649 14.5211C4.73088 14.8669 5.72975 18.3246 6.35725 20.4247C6.72862 21.7182 7.67627 22.6402 8.72637 22.7042C8.7776 22.7042 8.84163 22.7042 8.89285 22.7042H19.714C19.714 22.7042 19.842 22.7042 19.8933 22.7042C20.9562 22.6274 21.891 21.731 22.2624 20.4247C22.8899 18.3502 23.8888 14.9309 23.8888 14.6108L24.2986 14.5596C24.3498 14.8669 23.2997 18.4398 22.6594 20.54C22.2368 22.0127 21.1611 23.0244 19.9317 23.1268C19.8548 23.1268 19.7908 23.1268 19.714 23.1268" fill="white"/>
<path id="Vector_2" d="M4.99948 13.3174C4.71774 13.3686 4.50004 13.6247 4.50004 13.9193C4.50004 14.2138 4.71774 14.4699 4.99948 14.4699L14.079 15.1487C14.2455 15.1487 14.4119 15.1487 14.5656 15.1487L23.6451 14.4699C23.9268 14.4699 24.1446 14.2266 24.1446 13.9193C24.1446 13.6119 23.9268 13.3558 23.6323 13.3046L14.5912 13.9705C14.4119 13.9833 14.2198 13.9833 14.0406 13.9705L4.98667 13.3046L4.99948 13.3174ZM14.3223 15.5713C14.2327 15.5713 14.143 15.5713 14.0406 15.5713L4.97386 14.8925C4.48723 14.8925 4.07744 14.4571 4.07744 13.9321C4.07744 13.4327 4.43601 13.0101 4.93545 12.9204C4.97386 12.9204 4.99948 12.9204 5.02509 12.9204L14.079 13.5863C14.2455 13.5991 14.4119 13.5991 14.5656 13.5863L23.6195 12.9204C23.6195 12.9204 23.6835 12.9204 23.7091 12.9204C24.2086 13.0101 24.5672 13.4327 24.5672 13.9321C24.5672 14.4571 24.1574 14.8925 23.6707 14.8925L14.604 15.5585C14.5144 15.5585 14.4247 15.5585 14.3223 15.5585" fill="white"/>
<path id="Vector_3" d="M9.03336 13.5478C8.82846 12.9331 8.82846 12.2928 8.82846 11.6141C8.82846 8.36132 11.2872 5.72327 14.3223 5.72327C17.3573 5.72327 19.8161 8.36132 19.8161 11.6013V11.6525C19.8161 12.3056 19.8161 12.9203 19.624 13.5094L19.227 13.3813C19.3935 12.8434 19.3935 12.2672 19.3935 11.6525V11.6013C19.3935 8.59183 17.114 6.14587 14.3223 6.14587C11.5305 6.14587 9.25106 8.59183 9.25106 11.6013C9.25106 12.2672 9.25106 12.8691 9.43035 13.4197L9.03336 13.5478Z" fill="white"/>
<path id="Vector_4" d="M10.1348 13.5348C9.96828 12.9713 9.94267 12.3694 9.94267 11.8444C9.94267 9.02704 11.902 6.74756 14.3095 6.74756C16.7171 6.74756 18.6764 9.03985 18.6764 11.8444C18.6764 12.3822 18.6508 12.9585 18.4971 13.4964L18.1001 13.3811C18.241 12.8817 18.2666 12.3438 18.2666 11.8444C18.2666 9.25755 16.4866 7.15735 14.3095 7.15735C12.1325 7.15735 10.3525 9.25755 10.3525 11.8444C10.3525 12.3566 10.3781 12.9073 10.5189 13.4067L10.122 13.522L10.1348 13.5348Z" fill="white"/>
<path id="Vector_5" d="M6.08801 20.1175C6.08801 20.1175 5.99837 20.0918 5.95995 20.0534C5.90873 19.9894 5.92153 19.8869 5.98556 19.8357L11.9148 15.1743C11.9788 15.1231 12.0813 15.1359 12.1325 15.1999C12.1837 15.264 12.1709 15.3664 12.1069 15.4176L6.17766 20.079C6.17766 20.079 6.11363 20.1175 6.07521 20.1175" fill="white"/>
<path id="Vector_6" d="M7.16353 22.1792C7.16353 22.1792 7.07389 22.1536 7.03547 22.1152C6.98424 22.0511 6.99705 21.9487 7.06108 21.8975L15.6027 15.1487C15.6668 15.0974 15.7692 15.1103 15.8204 15.1743C15.8717 15.2383 15.8588 15.3408 15.7948 15.392L7.25317 22.1408C7.25317 22.1408 7.18914 22.1792 7.15072 22.1792" fill="white"/>
<path id="Vector_7" d="M10.2112 23.0754C10.2112 23.0754 10.1215 23.0498 10.0831 23.0114C10.0319 22.9473 10.0447 22.8449 10.1087 22.7936L20.1999 14.8667C20.2639 14.8155 20.3664 14.8283 20.4176 14.8923C20.4688 14.9563 20.456 15.0588 20.392 15.11L10.3008 23.037C10.3008 23.037 10.2368 23.0754 10.1984 23.0754" fill="white"/>
</g>
</g>
</svg>
